<?xml version="1.0" encoding="utf-8"?>
<!-- Generator: Adobe Illustrator 27.3.1, SVG Export Plug-In . SVG Version: 6.00 Build 0)  -->
<svg version="1.1" id="Layer_1" xmlns="http://www.w3.org/2000/svg" xmlns:xlink="http://www.w3.org/1999/xlink" x="0px" y="0px"
	 viewBox="0 0 160 160" style="enable-background:new 0 0 160 160;" xml:space="preserve">
<g>
	<path style="stroke:#3A3A3A;stroke-miterlimit:10;" d="M129.9,70.1c2.4,0.6,4.8,1.2,7.2,1.8c0.8,0.2,1.9,0.8,1.6,1.4
		c-0.1,0.2-0.3,0.3-0.5,0.4c-3.4,2.1-8.2,0.4-12-1c-16.2-6.1-34.2-8.4-52-9c-12-0.4-24.2-0.1-35.8-2.6c4,2.6,7.2,6.2,8.2,10.3
		c1,4.1-0.3,8.7-4,11.6c-2.9,2.3-7.2,3.3-11.1,2.5c-1.6-0.3-3.6-0.8-4.8-1.7c-1.4-1-2.5-2.4-3.2-3.8c-1.5-3-1.5-6.5,0.5-9.3
		c2.3-3.3,6.9-5.9,6.7-9.7c-2.4,1.2-4.7,2.5-7.1,3.7c-1.6,0.9-4.4,1.5-5.1,0c-1.1-2.1,4.3-4,2.9-5.9c-0.3-0.4-0.9-0.7-1.4-0.8
		c-2.1-0.7-4.4-0.9-6.6-1.5s-4.2-2.2-4-4.1c0-0.5,0.2-1,0.7-1.4c1-0.8,2.6-0.4,3.9,0c5.4,1.7,10.9,3.4,16.3,5.1
		c-0.4-1.3-0.9-2.7-1.3-4c1.6,0.8,2.2,2.5,3.8,3.3c1.4,0.7,3.3,0.3,4.7-0.5s2.2-2,3.1-3.2c-0.7,1.9-1.3,3.7-2,5.6
		c13.3,2.1,27.1,0.2,40.5,1.2c11.2,0.9,22,3.8,32.7,6.7C117.7,66.9,123.8,68.5,129.9,70.1z"/>
	<path style="fill:#F7931E;stroke:#F15A24;stroke-width:2;stroke-miterlimit:10;" d="M112.4,30.9c0-1.4-0.2-2.7-0.5-4.1
		c-1.2-6.1-4.3-11.6-8.7-15.9C99.3,7,94,3.7,88.3,3.5C82.4,3.4,77.5,7.1,75,12.3c-3,5.9-3.5,12.9-3.6,19.4
		c-0.1,15.1,2,30.1,2.9,45.1c0.7,13.6,0.8,27.8-4.2,40.8c-2.3,6-5.8,11.7-10.5,16.2c-2.4,2.3-5.2,4.4-8.1,6.1
		c-2.2,1.3-5.3,2.2-6.8,4.5c-1.3,2.2-2.4,9,0.6,10.4c1.2,0.5,2.6-0.2,3.5-0.9c2.3-1.6,3.7-4.3,5.4-6.4c4.3-5.4,9.3-10.1,13.3-15.7
		c7.2-10.3,11.8-22.8,12-35.4c0.2-10.9-1.8-21.8-1.7-32.7c0-4.2,0-10.6,5.3-11.5c2.8-0.5,5.7,0.2,8.5,0c3.2-0.3,6.5-1.1,9.5-2.4
		c4.9-2.2,8.4-5.9,10.1-11C112,36,112.4,33.5,112.4,30.9z M101.5,42c-2.8,2.6-6.7,3.5-10.5,4.1c-9.2,1.6-13.7,0.1-13.4-9.8
		c0.1-4.1,0.1-8.3,0.6-12.4c0.4-3.3,0.9-7,2.7-9.9c1.7-2.8,4.8-3.5,7.9-3.3c7.1,0.6,12.8,5.9,15.4,12.3c2.3,5.7,2.4,13.3-1.9,18.1
		C102,41.5,101.7,41.7,101.5,42z"/>
	<path style="stroke:#3A3A3A;stroke-miterlimit:10;" d="M69.1,79.3c-0.9,2.7-1.7,5.3-3.6,8.9c-0.9,1.7-2.1,3.5-4.4,7.1
		c-3,4.6-3.9,5.7-5.3,8.6c-2.7,5.5-2,7.1-1.7,7.6c0.7,1.2,2,0.9,2.4,2.2c0.5,1.4-0.5,3.7-2.1,4.7c-1.1,0.7-2.8,0.8-3.8-0.2
		c-0.9-0.9-0.9-2.4-0.8-3.3c0.2-4,1.5-6.2,3.8-12.8c0.9-2.6,1.1-3.4,2.1-5.9c0.8-1.9,1.2-3,2.2-5.2c2-4.6,1.8-4.5,3.2-7.6
		c1.8-4.1,3.3-7.5,6-11.2c0.9-1.3,1.8-2.3,2.4-3.1c0.1-0.1,0.2-0.2,0.2-0.3c0,0.1,0.1,0.2,0.1,0.3c0.3,0.8,0.6,2,0.6,3.4
		C70.4,74.3,70.2,76,69.1,79.3z"/>
	<path style="stroke:#3A3A3A;stroke-miterlimit:10;" d="M84.4,103c2.6,1.9,5.3,3,6.5,3.7c1.5,0.8,3.3,2.5,4.6,6.3
		c0.7,2.3,1.5,4.6,2.2,6.9c0.3,1.3,0.6,2.6,0.8,3.8c0.3,1.7,0.2,3,0,3.8c-0.2,0.9-0.4,1.8-1,2.1c-0.6,0.3-1-0.4-1.8-0.3
		c-0.9,0.2-1.6,1.2-1.7,2.2c0,1.2,1.1,1.9,2.6,3.4c0,0,1.3,1.3,3.6,4.6c2.7,3.9,3.2,7.7,6.2,12.8c0.4,0.6,1,1.7,1.7,1.6
		c0.7-0.1,0.9-1.8,1-2.1c0.3-1.9-0.4-3.5-1.4-5.4c-2.2-4.4-3.6-5.3-5-9c-0.4-1.1-0.7-2-0.8-2.6c-1.5-5.6-0.9-10.4-0.8-12.7
		c0.5-11.3-8.7-20.9-12.8-22.4c-0.7-0.3-2.8-1-4.3,0c-0.1,0.1-1,0.7-1,1.5C83.1,102.1,83.9,102.7,84.4,103z"/>
	<path style="stroke:#3A3A3A;stroke-miterlimit:10;" d="M117.7,69.8c0.3,0.6,0.4,1.1,0.3,1.4c-0.4,0.9-3.2,0.8-4.8-0.6
		c-1.1-1-1.4-2.3-1.6-2.9c-0.1-0.3-0.3-0.5-0.5-0.8c-7.4-1-6.8-1.2-11.3-1.6c-0.9-0.1-1.8-0.1-2.8-0.2c-1.8,0.1-3.8,0.3-6,0.6
		c-1.7,0.7-5.6,2.5-8.4,5.8c-0.7-3.1-1.2-6.8-0.2-7.8c0.1-0.1,0.3-0.3,0.8-0.8c0.4-0.3,1-0.9,2-2c1.2-1.2,1.7-2,2.6-2.6
		c4-3.1,9.9-1.3,13.5-0.3c3.9,1.2,7.5,3.2,10.3,5.3C113.6,64.9,116.3,67.1,117.7,69.8z"/>
</g>
</svg>
