<?xml version="1.0" encoding="utf-8"?>
<!-- Generator: Adobe Illustrator 27.3.1, SVG Export Plug-In . SVG Version: 6.00 Build 0)  -->
<svg version="1.1" id="Layer_1" xmlns="http://www.w3.org/2000/svg" xmlns:xlink="http://www.w3.org/1999/xlink" x="0px" y="0px"
	 viewBox="0 0 160 160" style="enable-background:new 0 0 160 160;" xml:space="preserve">
<style type="text/css">
	.st0{stroke:#000000;stroke-miterlimit:16;}
	.st1{fill:#EA580C;stroke:#EA580C;stroke-width:5;stroke-miterlimit:16;}
	.st2{stroke:#000000;stroke-width:2;stroke-linejoin:round;stroke-miterlimit:16;}
	.st3{stroke:#000000;stroke-width:2;stroke-miterlimit:16;}
	.st4{stroke:#000000;stroke-width:2;stroke-linecap:round;stroke-linejoin:round;stroke-miterlimit:16;}
</style>
<path class="st0" d="M128.9,145.5c-0.3,1.9-0.5,3.8-0.8,5.7c-0.1,0.6-0.6,1.6-1.2,1.4c-0.2,0-0.4-0.2-0.5-0.3
	c-2.8-2.2-1.8-6.1-0.9-9.2c3.9-13.1,3.5-27,1.3-40.4c-1.5-9.1-3.8-18.2-3-27.3c-0.4-1.9-0.8-3.9-1.1-5.8c-1.7-1.6-3.5-3.1-5.1-4.7
	c-1.2-1.1-2.3-3.1-0.8-3.8c2.1-1.2,5,2.6,6.8,1.2c0.4-0.3,0.6-0.8,0.6-1.2c0.4-1.7,0.3-3.4,0.5-5.2c0.3-1.7,1.7-3.5,3.8-3.7
	c0.5-0.1,1.1,0,1.6,0.3c1,0.6,0.9,1.9,0.6,2.9c-1,4.3-1.9,8.7-2.8,13c0,2.1,0,4.3,0.1,6.4c-0.1,10.3,4.2,20.4,5.3,30.6
	c0.8,8.5-0.5,17.1-1.9,25.6C130.4,135.8,129.6,140.7,128.9,145.5z"/>
<path class="st1" d="M111,29.1c0,0,0-0.1-0.1-0.3c-1.2-5-3.9-9.8-8.2-13.5C98.5,11.8,93,9,87,8.3c-15.3-1.8-25.4,8.2-25.3,20.3
	c0,6.6,0.2,13.3,0.7,19.9c1.2,14.6,3.7,29.1,3.3,43.7c-0.4,13.5-3.9,27.5-14.7,37.8c-2.6,2.4-5.5,4.6-8.6,6.4
	c-2.9,1.7-6,2.9-9.2,4.3c-2.5,1.1-4.1,2.5-4.9,4.8c-0.6,1.9-0.9,4.3,0,6.2c3.3,6.2,11.9-4.9,14-6.8c5.3-5.1,11.3-9.7,16-15.3
	c9.3-11.2,13.9-24.2,13.3-37.8c-0.3-7.4-1.5-14.7-1.9-22.1C69.1,59.4,70.1,57,72,55.6c2.4-1.8,4.4-0.5,11.9-1.4
	c4.6-0.5,11.6-1.3,17.6-5.5c4.8-3.3,6.9-7.4,7.6-8.9C111.2,35.2,111.2,31.1,111,29.1z M86.3,47.9c-0.6,0.1-1.3,0.3-1.9,0.4
	c-4,0.8-8.9,1.6-12.3-0.8c-3.4-2.4-3.6-6.6-3.6-10.1c0.2-12.4,2.8-23.6,19.7-21c7,1.1,13.5,5.7,15.3,12c1.8,6.5-2.2,13.4-8.5,16.7
	C92.3,46.5,89.3,47.2,86.3,47.9z"/>
<path class="st2" d="M55.8,85.7c-1.1,2.3-2,4.6-4.2,7.7c-1.1,1.5-2.5,3.1-5.1,6.2c-3.5,4-4.6,5-6.2,7.5c-3.2,4.7-2.4,6.2-2,6.6
	c0.8,1.1,2.4,0.7,2.8,1.9c0.6,1.2-0.6,3.2-2.5,4.1c-1.3,0.6-3.3,0.7-4.4-0.2c-1.1-0.7-1.1-2.1-1-2.8c0.3-3.5,1.8-5.4,4.4-11.2
	c1.1-2.2,1.3-3,2.5-5.2c1-1.7,1.4-2.6,2.6-4.5c2.4-4,2.1-3.9,3.7-6.6c2.1-3.6,3.9-6.5,7-9.7c1.1-1.2,2.1-2,2.8-2.7
	c0.1-0.1,0.3-0.2,0.3-0.2c0,0.1,0.1,0.2,0.1,0.2c0.4,0.7,0.7,1.7,0.7,3C57.3,81.4,57.1,82.8,55.8,85.7z"/>
<path class="st3" d="M80.6,107c3.7,1.8,7.5,2.8,9.3,3.4c2.1,0.7,4.7,2.3,6.6,5.8c1,2.1,2.1,4.3,3.1,6.4c0.4,1.2,0.9,2.4,1.1,3.5
	c0.4,1.6,0.3,2.8,0,3.5c-0.3,0.8-0.6,1.7-1.4,1.9c-0.9,0.3-1.4-0.4-2.6-0.3c-1.3,0.2-2.3,1.1-2.4,2c0,1.1,1.6,1.8,3.7,3.1
	c0,0,1.9,1.2,5.1,4.3c3.8,3.6,4.6,7.1,8.8,11.8c0.6,0.6,1.4,1.6,2.4,1.5s1.3-1.7,1.4-1.9c0.4-1.8-0.6-3.2-2-5
	c-3.1-4.1-5.1-4.9-7.1-8.3c-0.6-1-1-1.8-1.1-2.4c-2.1-5.2-1.3-9.6-1.1-11.7c0.7-10.4-12.4-19.3-18.2-20.7c-1-0.3-4-0.9-6.1,0
	c-0.1,0.1-1.4,0.6-1.4,1.4C78.8,106.1,79.9,106.7,80.6,107z"/>
<path class="st4" d="M129.1,76c0.4,0.6,0.6,1,0.4,1.3c-0.6,0.8-4.6,0.7-6.9-0.6c-1.6-0.9-2-2.1-2.3-2.7c-0.1-0.3-0.4-0.5-0.7-0.7
	c-10.6-0.9-9.8-1.1-16.2-1.5c-1.3-0.1-2.6-0.1-4-0.2c-2.6,0.1-5.5,0.3-8.6,0.6c-1.2,0.3-3.2,0.8-5.4,1.8c-3.9,1.7-5,3.2-6.3,2.7
	c-2.1-0.8-1.3-5.9-0.7-6.3c0,0,0,0,0.5-0.3c0.2-0.1,0.4-0.2,0.6-0.4c0.6-0.3,1.4-0.8,2.9-1.8c1.7-1.1,2.4-1.8,3.7-2.4
	c5.7-2.9,14.2-1.2,19.4-0.3c5.6,1.1,10.8,3,14.8,4.9C123.2,71.4,127.1,73.5,129.1,76z"/>
</svg>
