<?xml version="1.0" encoding="UTF-8"?>
<svg id="Layer_1" data-name="Layer 1" xmlns="http://www.w3.org/2000/svg" viewBox="0 0 159.75 159.43">
  <defs>
    <style>
      .cls-1 {
        stroke-linecap: round;
      }

      .cls-1, .cls-2, .cls-3, .cls-4 {
        fill: #000000;
        stroke: #000000;
      }

      .cls-1, .cls-3 {
        stroke-linejoin: round;
      }

      .cls-1, .cls-3, .cls-4 {
        stroke-width: 2px;
      }

      .cls-5 {
        fill: #fafafa;
      }

      .cls-2, .cls-4, .cls-6 {
        stroke-miterlimit: 16;
      }

      .cls-6 {
        fill: #ea580c;
        stroke: #ea580c;
        stroke-width: 5px;
      }
    </style>
  </defs>
  <rect class="cls-5" width="159.75" height="159.43" rx="30.86" ry="30.86"/>
  <path class="cls-2" d="m119.77,135.33c-.25,1.61-.42,3.21-.68,4.82-.08.51-.51,1.35-1.01,1.18-.17,0-.34-.17-.42-.25-2.37-1.86-1.52-5.16-.76-7.78,3.3-11.08,2.96-22.83,1.1-34.16-1.27-7.69-3.21-15.39-2.54-23.08-.34-1.61-.68-3.3-.93-4.9-1.44-1.35-2.96-2.62-4.31-3.97-1.01-.93-1.94-2.62-.68-3.21,1.78-1.01,4.23,2.2,5.75,1.01.34-.25.51-.68.51-1.01.34-1.44.25-2.87.42-4.4.25-1.44,1.44-2.96,3.21-3.13.42-.08.93,0,1.35.25.85.51.76,1.61.51,2.45-.85,3.64-1.61,7.36-2.37,10.99,0,1.78,0,3.64.08,5.41-.08,8.71,3.55,17.25,4.48,25.87.68,7.19-.42,14.46-1.61,21.64-.85,4.06-1.52,8.2-2.11,12.26Z"/>
  <path class="cls-6" d="m104.64,36.92s0-.08-.08-.25c-1.01-4.23-3.3-8.29-6.93-11.41-3.55-2.96-8.2-5.33-13.27-5.92-12.94-1.52-21.47,6.93-21.39,17.16,0,5.58.17,11.24.59,16.82,1.01,12.34,3.13,24.6,2.79,36.95-.34,11.41-3.3,23.25-12.43,31.96-2.2,2.03-4.65,3.89-7.27,5.41-2.45,1.44-5.07,2.45-7.78,3.64-2.11.93-3.47,2.11-4.14,4.06-.51,1.61-.76,3.64,0,5.24,2.79,5.24,10.06-4.14,11.84-5.75,4.48-4.31,9.55-8.2,13.53-12.94,7.86-9.47,11.75-20.46,11.24-31.96-.25-6.26-1.27-12.43-1.61-18.68-.51-8.71.34-10.74,1.94-11.92,2.03-1.52,3.72-.42,10.06-1.18,3.89-.42,9.81-1.1,14.88-4.65,4.06-2.79,5.83-6.26,6.43-7.52,1.78-3.89,1.78-7.36,1.61-9.05Zm-19.66,15.2c-.53.09-1.14.26-1.67.35-3.51.7-7.81,1.4-10.8-.7-2.99-2.11-3.16-5.79-3.16-8.87.18-10.89,2.46-20.72,17.3-18.44,6.15.97,11.85,5,13.43,10.54,1.58,5.71-1.93,11.77-7.46,14.66-2.37,1.23-5,1.84-7.64,2.46Z"/>
  <path class="cls-3" d="m57.97,84.77c-.93,1.94-1.69,3.89-3.55,6.51-.93,1.27-2.11,2.62-4.31,5.24-2.96,3.38-3.89,4.23-5.24,6.34-2.71,3.97-2.03,5.24-1.69,5.58.68.93,2.03.59,2.37,1.61.51,1.01-.51,2.71-2.11,3.47-1.1.51-2.79.59-3.72-.17-.93-.59-.93-1.78-.85-2.37.25-2.96,1.52-4.57,3.72-9.47.93-1.86,1.1-2.54,2.11-4.4.85-1.44,1.18-2.2,2.2-3.8,2.03-3.38,1.78-3.3,3.13-5.58,1.78-3.04,3.3-5.5,5.92-8.2.93-1.01,1.78-1.69,2.37-2.28.08-.08.25-.17.25-.17,0,.08.08.17.08.17.34.59.59,1.44.59,2.54,0,1.35-.17,2.54-1.27,4.99Z"/>
  <path class="cls-4" d="m78.94,102.78c3.13,1.52,6.34,2.37,7.86,2.87,1.78.59,3.97,1.94,5.58,4.9.85,1.78,1.78,3.64,2.62,5.41.34,1.01.76,2.03.93,2.96.34,1.35.25,2.37,0,2.96-.25.68-.51,1.44-1.18,1.61-.76.25-1.18-.34-2.2-.25-1.1.17-1.94.93-2.03,1.69,0,.93,1.35,1.52,3.13,2.62,0,0,1.61,1.01,4.31,3.64,3.21,3.04,3.89,6,7.44,9.98.51.51,1.18,1.35,2.03,1.27s1.1-1.44,1.18-1.61c.34-1.52-.51-2.71-1.69-4.23-2.62-3.47-4.31-4.14-6-7.02-.51-.85-.85-1.52-.93-2.03-1.78-4.4-1.1-8.12-.93-9.89.59-8.79-10.48-16.32-15.39-17.5-.85-.25-3.38-.76-5.16,0-.08.08-1.18.51-1.18,1.18.08.68,1.01,1.18,1.61,1.44Z"/>
  <path class="cls-1" d="m119.94,76.57c.34.51.51.85.34,1.1-.51.68-3.89.59-5.83-.51-1.35-.76-1.69-1.78-1.94-2.28-.08-.25-.34-.42-.59-.59-8.96-.76-8.29-.93-13.7-1.27-1.1-.08-2.2-.08-3.38-.17-2.2.08-4.65.25-7.27.51-1.01.25-2.71.68-4.57,1.52-3.3,1.44-4.23,2.71-5.33,2.28-1.78-.68-1.1-4.99-.59-5.33l.42-.25c.17-.08.34-.17.51-.34.51-.25,1.18-.68,2.45-1.52,1.44-.93,2.03-1.52,3.13-2.03,4.82-2.45,12.01-1.01,16.4-.25,4.73.93,9.13,2.54,12.51,4.14,2.45,1.1,5.75,2.87,7.44,4.99Z"/>
</svg>